{
  "accessors": [
    {
      "bufferView": 2,
      "componentType": 5126,
      "count": 12290,
      "max": [
        0.98594999313354492,
        0.98594999313354492,
        0.99843001365661621
      ],
      "min": [
        -0.98594999313354492,
        -0.9605100154876709,
        -0.99843001365661621
      ],
      "type": "VEC3"
    },
    {
      "bufferView": 2,
      "byteOffset": 147480,
      "componentType": 5126,
      "count": 12290,
      "max": [
        0.99999862909317017,
        0.99999862909317017,
        1
      ],
      "min": [
        -0.99999862909317017,
        -1,
        -1
      ],
      "type": "VEC3"
    },
    {
      "bufferView": 3,
      "componentType": 5126,
      "count": 12290,
      "max": [
        0.99999856948852539,
        0.99994397163391113,
        0.99989867210388184,
        1
      ],
      "min": [
        -0.99643987417221069,
        -0.99997782707214355,
        -0.99996840953826904,
        -1
      ],
      "type": "VEC4"
    },
    {
      "bufferView": 1,
      "componentType": 5126,
      "count": 12290,
      "max": [
        0.98891997337341309,
        0.99229997396469116
      ],
      "min": [
        0.021360000595450401,
        0.025879999622702599
      ],
      "type": "VEC2"
    },
    {
      "bufferView": 0,
      "componentType": 5125,
      "count": 71472,
      "max": [
        12289
      ],
      "min": [
        0
      ],
      "type": "SCALAR"
    }
  ],
  "asset": {
    "extras": {
      "author": "Adria Ruiz (https://sketchfab.com/adriaruiz)",
      "license": "CC-BY-4.0 (http://creativecommons.org/licenses/by/4.0/)",
      "source": "https://sketchfab.com/3d-models/pokeball-dadc07653f964eb681114696bc683650",
      "title": "Pokeball"
    },
    "generator": "Sketchfab-5.22.0",
    "version": "2.0"
  },
  "bufferViews": [
    {
      "buffer": 0,
      "byteLength": 285888,
      "byteOffset": 0,
      "name": "floatBufferViews",
      "target": 34963
    },
    {
      "buffer": 0,
      "byteLength": 98320,
      "byteOffset": 285888,
      "byteStride": 8,
      "name": "floatBufferViews",
      "target": 34962
    },
    {
      "buffer": 0,
      "byteLength": 294960,
      "byteOffset": 384208,
      "byteStride": 12,
      "name": "floatBufferViews",
      "target": 34962
    },
    {
      "buffer": 0,
      "byteLength": 196640,
      "byteOffset": 679168,
      "byteStride": 16,
      "name": "floatBufferViews",
      "target": 34962
    }
  ],
  "buffers": [
    {
      "byteLength": 875808,
      "uri": "scene.bin"
    }
  ],
  "extensionsUsed": [
    "KHR_materials_unlit"
  ],
  "images": [
    {
      "uri": "textures/Material.001_baseColor.png"
    }
  ],
  "materials": [
    {
      "doubleSided": true,
      "extensions": {
        "KHR_materials_unlit": {}
      },
      "name": "Material.001",
      "pbrMetallicRoughness": {
        "baseColorFactor": [
          1,
          1,
          1,
          1
        ],
        "baseColorTexture": {
          "index": 0,
          "texCoord": 0
        },
        "metallicFactor": 0,
        "roughnessFactor": 1
      }
    }
  ],
  "meshes": [
    {
      "name": "Sphere.003_0",
      "primitives": [
        {
          "attributes": {
            "NORMAL": 1,
            "POSITION": 0,
            "TANGENT": 2,
            "TEXCOORD_0": 3
          },
          "indices": 4,
          "material": 0,
          "mode": 4
        }
      ]
    }
  ],
  "nodes": [
    {
      "children": [
        1
      ],
      "name": "RootNode (gltf orientation matrix)",
      "rotation": [
        -0.70710678118654746,
        -0,
        -0,
        0.70710678118654757
      ]
    },
    {
      "children": [
        2
      ],
      "matrix": [
        1,
        0,
        0,
        0,
        0,
        0.99308145046234131,
        0.11742764711380005,
        0,
        0,
        -0.11742764711380005,
        0.99308145046234131,
        0,
        0,
        -0.009431363083422184,
        0.017877377569675446,
        1
      ],
      "name": "RootNode (model correction matrix)"
    },
    {
      "children": [
        3
      ],
      "name": "Root"
    },
    {
      "children": [
        4
      ],
      "matrix": [
        -1,
        -0,
        0,
        0,
        0,
        -1,
        0,
        0,
        0,
        0,
        1,
        0,
        0.15948000000000004,
        -0.14371000000000003,
        -0.07110000000000001,
        1
      ],
      "name": "Sphere.003"
    },
    {
      "mesh": 0,
      "name": "Sphere.003_0"
    }
  ],
  "samplers": [
    {
      "magFilter": 9729,
      "minFilter": 9987,
      "wrapS": 10497,
      "wrapT": 10497
    }
  ],
  "scene": 0,
  "scenes": [
    {
      "name": "OSG_Scene",
      "nodes": [
        0
      ]
    }
  ],
  "textures": [
    {
      "sampler": 0,
      "source": 0
    }
  ]
}

