{
    "asset" : {
        "generator" : "Khronos glTF Blender I/O v1.0.5",
        "version" : "2.0"
    },
    "scene" : 0,
    "scenes" : [
        {
            "name" : "Scene",
            "nodes" : [
                0,
                1,
                2,
                3,
                4
            ]
        }
    ],
    "nodes" : [
        {
            "name" : "Light",
            "rotation" : [
                0.16907575726509094,
                0.7558803558349609,
                -0.27217137813568115,
                0.570947527885437
            ],
            "translation" : [
                4.076245307922363,
                5.903861999511719,
                -1.0054539442062378
            ]
        },
        {
            "name" : "Camera",
            "rotation" : [
                0.483536034822464,
                0.33687159419059753,
                -0.20870360732078552,
                0.7804827094078064
            ],
            "translation" : [
                7.358891487121582,
                4.958309173583984,
                6.925790786743164
            ]
        },
        {
            "mesh" : 0,
            "name" : "pokecenter_1",
            "rotation" : [
                0.7071068286895752,
                0,
                0,
                0.7071067094802856
            ]
        },
        {
            "mesh" : 1,
            "name" : "pokecenter_2",
            "rotation" : [
                0.7071068286895752,
                0,
                0,
                0.7071067094802856
            ]
        },
        {
            "mesh" : 2,
            "name" : "pokecenter_3",
            "rotation" : [
                0.7071068286895752,
                0,
                0,
                0.7071067094802856
            ]
        }
    ],
    "materials" : [
        {
            "doubleSided" : true,
            "name" : "pokecen_01",
            "pbrMetallicRoughness" : {
                "baseColorTexture" : {
                    "index" : 0,
                    "texCoord" : 0
                },
                "metallicFactor" : 0,
                "roughnessFactor" : 0.6732679605484009
            }
        },
        {
            "doubleSided" : true,
            "name" : "pc_mado",
            "pbrMetallicRoughness" : {
                "baseColorFactor" : [
                    0.6399999856948853,
                    0.6399999856948853,
                    0.6399999856948853,
                    1
                ],
                "metallicFactor" : 0,
                "roughnessFactor" : 0.6732679605484009
            }
        },
        {
            "doubleSided" : true,
            "name" : "pokecen00",
            "pbrMetallicRoughness" : {
                "baseColorFactor" : [
                    0.6399999856948853,
                    0.6399999856948853,
                    0.6399999856948853,
                    1
                ],
                "metallicFactor" : 0,
                "roughnessFactor" : 0.6732679605484009
            }
        }
    ],
    "meshes" : [
        {
            "name" : "pokecenter_1",
            "primitives" : [
                {
                    "attributes" : {
                        "POSITION" : 0,
                        "NORMAL" : 1,
                        "TEXCOORD_0" : 2
                    },
                    "indices" : 3,
                    "material" : 0
                }
            ]
        },
        {
            "name" : "pokecenter_2",
            "primitives" : [
                {
                    "attributes" : {
                        "POSITION" : 4,
                        "NORMAL" : 5,
                        "TEXCOORD_0" : 6
                    },
                    "indices" : 7,
                    "material" : 1
                }
            ]
        },
        {
            "name" : "pokecenter_3",
            "primitives" : [
                {
                    "attributes" : {
                        "POSITION" : 8,
                        "NORMAL" : 9,
                        "TEXCOORD_0" : 10
                    },
                    "indices" : 11,
                    "material" : 2
                }
            ]
        }
    ],
    "textures" : [
        {
            "source" : 0
        }
    ],
    "images" : [
        {
            "bufferView" : 4,
            "mimeType" : "image/png",
            "name" : "pokecen_01"
        }
    ],
    "accessors" : [
        {
            "bufferView" : 0,
            "componentType" : 5126,
            "count" : 1542,
            "max" : [
                56.80413818359375,
                31.676679611206055,
                44.50486755371094
            ],
            "min" : [
                -60.00384521484375,
                -57.96952438354492,
                -36.44464111328125
            ],
            "type" : "VEC3"
        },
        {
            "bufferView" : 1,
            "componentType" : 5126,
            "count" : 1542,
            "type" : "VEC3"
        },
        {
            "bufferView" : 2,
            "componentType" : 5126,
            "count" : 1542,
            "type" : "VEC2"
        },
        {
            "bufferView" : 3,
            "componentType" : 5123,
            "count" : 2373,
            "type" : "SCALAR"
        },
        {
            "bufferView" : 5,
            "componentType" : 5126,
            "count" : 152,
            "max" : [
                55.8043327331543,
                13.889459609985352,
                20.627376556396484
            ],
            "min" : [
                -59.0036506652832,
                -37.953948974609375,
                -33.4692268371582
            ],
            "type" : "VEC3"
        },
        {
            "bufferView" : 6,
            "componentType" : 5126,
            "count" : 152,
            "type" : "VEC3"
        },
        {
            "bufferView" : 7,
            "componentType" : 5126,
            "count" : 152,
            "type" : "VEC2"
        },
        {
            "bufferView" : 8,
            "componentType" : 5123,
            "count" : 180,
            "type" : "SCALAR"
        },
        {
            "bufferView" : 9,
            "componentType" : 5126,
            "count" : 355,
            "max" : [
                52.38142013549805,
                32.94477081298828,
                25.697805404663086
            ],
            "min" : [
                -10.166583061218262,
                20.889795303344727,
                -27.87619400024414
            ],
            "type" : "VEC3"
        },
        {
            "bufferView" : 10,
            "componentType" : 5126,
            "count" : 355,
            "type" : "VEC3"
        },
        {
            "bufferView" : 11,
            "componentType" : 5126,
            "count" : 355,
            "type" : "VEC2"
        },
        {
            "bufferView" : 12,
            "componentType" : 5123,
            "count" : 582,
            "type" : "SCALAR"
        }
    ],
    "bufferViews" : [
        {
            "buffer" : 0,
            "byteLength" : 18504,
            "byteOffset" : 0
        },
        {
            "buffer" : 0,
            "byteLength" : 18504,
            "byteOffset" : 18504
        },
        {
            "buffer" : 0,
            "byteLength" : 12336,
            "byteOffset" : 37008
        },
        {
            "buffer" : 0,
            "byteLength" : 4746,
            "byteOffset" : 49344
        },
        {
            "buffer" : 0,
            "byteLength" : 10899,
            "byteOffset" : 54092
        },
        {
            "buffer" : 0,
            "byteLength" : 1824,
            "byteOffset" : 64992
        },
        {
            "buffer" : 0,
            "byteLength" : 1824,
            "byteOffset" : 66816
        },
        {
            "buffer" : 0,
            "byteLength" : 1216,
            "byteOffset" : 68640
        },
        {
            "buffer" : 0,
            "byteLength" : 360,
            "byteOffset" : 69856
        },
        {
            "buffer" : 0,
            "byteLength" : 4260,
            "byteOffset" : 70216
        },
        {
            "buffer" : 0,
            "byteLength" : 4260,
            "byteOffset" : 74476
        },
        {
            "buffer" : 0,
            "byteLength" : 2840,
            "byteOffset" : 78736
        },
        {
            "buffer" : 0,
            "byteLength" : 1164,
            "byteOffset" : 81576
        }
    ],
    "buffers" : [
        {
            "byteLength" : 82740,
            "uri" : "data:application/octet-stream;base64,"
        }
    ]
}
