{
  "accessors": [
    {
      "bufferView": 2,
      "componentType": 5126,
      "count": 60,
      "max": [
        3.4329166412353516,
        1,
        3.3152182102203369
      ],
      "min": [
        -3.4329166412353516,
        -0.99999994039535522,
        -3.3463623523712158
      ],
      "type": "VEC3"
    },
    {
      "bufferView": 2,
      "byteOffset": 720,
      "componentType": 5126,
      "count": 60,
      "max": [
        0.60603153705596924,
        0.88481450080871582,
        0.65892434120178223
      ],
      "min": [
        -0.60603153705596924,
        -0.88481450080871582,
        -0.41281706094741821
      ],
      "type": "VEC3"
    },
    {
      "bufferView": 3,
      "componentType": 5126,
      "count": 60,
      "max": [
        0.98982542753219604,
        2.198193982394514e-07,
        0.46372193098068237,
        1
      ],
      "min": [
        -0.99013543128967285,
        -6.6170237289497891e-08,
        -0.9563974142074585,
        -1
      ],
      "type": "VEC4"
    },
    {
      "bufferView": 1,
      "componentType": 5126,
      "count": 60,
      "max": [
        0.49000000953674316,
        0.49000000953674316
      ],
      "min": [
        0.01000000536441803,
        0.01000000536441803
      ],
      "type": "VEC2"
    },
    {
      "bufferView": 0,
      "componentType": 5125,
      "count": 60,
      "max": [
        59
      ],
      "min": [
        0
      ],
      "type": "SCALAR"
    }
  ],
  "asset": {
    "extras": {
      "author": "Fernando (https://sketchfab.com/AlcGames)",
      "license": "CC-BY-4.0 (http://creativecommons.org/licenses/by/4.0/)",
      "source": "https://sketchfab.com/3d-models/simple-star-lowpoly-cf2b6a3cc74d4f62a94735c37bd69c9b",
      "title": "Simple Star (Lowpoly)"
    },
    "generator": "Sketchfab-5.81.0",
    "version": "2.0"
  },
  "bufferViews": [
    {
      "buffer": 0,
      "byteLength": 240,
      "byteOffset": 0,
      "name": "floatBufferViews",
      "target": 34963
    },
    {
      "buffer": 0,
      "byteLength": 480,
      "byteOffset": 240,
      "byteStride": 8,
      "name": "floatBufferViews",
      "target": 34962
    },
    {
      "buffer": 0,
      "byteLength": 1440,
      "byteOffset": 720,
      "byteStride": 12,
      "name": "floatBufferViews",
      "target": 34962
    },
    {
      "buffer": 0,
      "byteLength": 960,
      "byteOffset": 2160,
      "byteStride": 16,
      "name": "floatBufferViews",
      "target": 34962
    }
  ],
  "buffers": [
    {
      "byteLength": 3120,
      "uri": "scene.bin"
    }
  ],
  "materials": [
    {
      "doubleSided": true,
      "emissiveFactor": [
        1,
        0.95716744630362471,
        0.0077914831724845571
      ],
      "name": "Color",
      "pbrMetallicRoughness": {
        "baseColorFactor": [
          0.004265297140161428,
          0.003445801620993789,
          0.045441876393557977,
          1
        ],
        "metallicFactor": 0.42590910015684186,
        "roughnessFactor": 0.74378786954012788
      }
    }
  ],
  "meshes": [
    {
      "name": "Cone_Color_0",
      "primitives": [
        {
          "attributes": {
            "NORMAL": 1,
            "POSITION": 0,
            "TANGENT": 2,
            "TEXCOORD_0": 3
          },
          "indices": 4,
          "material": 0,
          "mode": 4
        }
      ]
    }
  ],
  "nodes": [
    {
      "children": [
        1
      ],
      "name": "RootNode (gltf orientation matrix)",
      "rotation": [
        -0.70710678118654746,
        -0,
        -0,
        0.70710678118654757
      ]
    },
    {
      "children": [
        2
      ],
      "name": "RootNode (model correction matrix)"
    },
    {
      "children": [
        3
      ],
      "matrix": [
        1,
        0,
        0,
        0,
        0,
        0,
        1,
        0,
        0,
        -1,
        0,
        0,
        0,
        0,
        0,
        1
      ],
      "name": "527ae46490b54c2b838796737c9e1711.fbx"
    },
    {
      "children": [
        4,
        7,
        9
      ],
      "name": "RootNode"
    },
    {
      "children": [
        5
      ],
      "matrix": [
        -48.610629615102738,
        -75.151383803583755,
        -44.601319786624146,
        0,
        -87.123986492874067,
        45.654625360916825,
        18.029591252821788,
        0,
        6.8130776141856835,
        47.622742018241269,
        -87.667875622072216,
        0,
        -1859.11865234375,
        1232.892578125,
        9.0151462554931641,
        1
      ],
      "name": "Light"
    },
    {
      "children": [
        6
      ],
      "matrix": [
        1,
        0,
        0,
        0,
        0,
        2.2204460492503131e-16,
        1,
        0,
        0,
        -1,
        2.2204460492503131e-16,
        0,
        0,
        0,
        0,
        1
      ],
      "name": ""
    },
    {
      "name": ""
    },
    {
      "children": [
        8
      ],
      "matrix": [
        -65.155832803290963,
        -44.527135765708579,
        -61.417030473735487,
        0,
        -32.40134137821245,
        89.539574512336159,
        -30.542088974418615,
        0,
        68.592054721299746,
        -1.0718647115348782e-05,
        -72.767633623962695,
        0,
        735.88916015625,
        495.8309326171875,
        692.5791015625,
        1
      ],
      "name": "Camera"
    },
    {
      "name": ""
    },
    {
      "children": [
        10
      ],
      "matrix": [
        99.999984532856161,
        -0.055618598750798276,
        -6.1738544886256325e-09,
        0,
        -8.6050197837476278e-09,
        -4.3711348540753647e-06,
        -99.999999999999901,
        0,
        0.05561859875079795,
        99.999984532856061,
        -4.3711389841050163e-06,
        0,
        0,
        0,
        0,
        1
      ],
      "name": "Cone"
    },
    {
      "mesh": 0,
      "name": "Cone_Color_0"
    }
  ],
  "scene": 0,
  "scenes": [
    {
      "name": "OSG_Scene",
      "nodes": [
        0
      ]
    }
  ]
}

